<svg xmlns="http://www.w3.org/2000/svg" width="213" height="48" viewBox="0 0 213 48">
  <g id="Group_2" data-name="Group 2" transform="translate(-698 -477)">
    <g id="Group_1" data-name="Group 1">
      <path id="alocasia-logo" d="M17.475,8.119l-.007-.007s2.484-2.558,3.483-3.294a4.787,4.787,0,0,1,4-.494s.031,2.136-1.365,3a3.557,3.557,0,0,1-2.745.448A6.626,6.626,0,0,1,23.059,5.59a3.334,3.334,0,0,0-2.271.993c-.554.515-1.837,1.833-2.29,2.3V13.4c1.558-1.254,4.426-3.557,5.254-4.2,2.287-1.768,5.383-.761,5.383-.761s.041,2.863-1.829,4.025a5.558,5.558,0,0,1-4.2.384,12.644,12.644,0,0,1,3.583-2.511c-1.31-.178-2.354.229-4.009,1.546-1.151.917-3.633,2.936-4.185,3.385v4.668c1.792-1.355,5.473-4.1,7.146-5.034a7.775,7.775,0,0,1,7.439-.414s-.384,3.748-3.006,4.983c-2.5,1.178-5.6-.111-5.827-.2a13.011,13.011,0,0,1,5.228-2.648,7.366,7.366,0,0,0-6.439,1.769C21.654,19.482,19.153,21.3,18.5,21.78V35.022H15.583V21.78c-.656-.478-3.153-2.3-4.538-3.388A7.366,7.366,0,0,0,4.6,16.624a13.011,13.011,0,0,1,5.228,2.648c-.232.093-3.328,1.382-5.827.2C1.384,18.241,1,14.493,1,14.493a7.775,7.775,0,0,1,7.439.414c1.671.935,5.352,3.676,7.143,5.034V15.278c-.54-.439-3.035-2.469-4.191-3.389-1.655-1.317-2.7-1.724-4.009-1.546a12.6,12.6,0,0,1,3.583,2.511,5.554,5.554,0,0,1-4.2-.384C4.9,11.308,4.94,8.445,4.94,8.445s3.095-1.006,5.383.761c.828.64,3.7,2.947,5.259,4.2V8.878c-.454-.468-1.734-1.782-2.287-2.3a3.334,3.334,0,0,0-2.271-.993,6.626,6.626,0,0,1,2.218,2.185A3.557,3.557,0,0,1,10.5,7.327c-1.4-.868-1.365-3-1.365-3a4.787,4.787,0,0,1,4,.494c1,.736,3.483,3.294,3.483,3.294l-.009.01.433.4.435-.405ZM21.7,21.807a7.116,7.116,0,0,1,5.225.175c2.608,1.263,2.971,5.047,2.971,5.047s-3.176,2.071-5.8.8a7.122,7.122,0,0,1-3.423-4.085,14.522,14.522,0,0,1,5.1,1.9A19.606,19.606,0,0,0,21.7,21.807Zm-9.31,0a7.116,7.116,0,0,0-5.225.175c-2.608,1.263-2.971,5.047-2.971,5.047s3.176,2.071,5.8.8a7.122,7.122,0,0,0,3.423-4.085,14.522,14.522,0,0,0-5.1,1.9A19.606,19.606,0,0,1,12.387,21.807Zm5.343-16a4.27,4.27,0,0,0,1.256-2.871C18.978,1.2,17.026.022,17.026.022S15.083,1.2,15.092,2.952a4.269,4.269,0,0,0,1.324,2.906A8.753,8.753,0,0,0,16.7,2.611,11.808,11.808,0,0,1,17.73,5.8Z" transform="translate(697 483.978)" fill="#fff" fill-rule="evenodd"/>
      <text id="ALOCASIA" transform="translate(741 512)" fill="#fff" font-size="32" font-family="Kanit-Regular, Kanit" letter-spacing="0.1em"><tspan x="0" y="0">ALOCASIA</tspan></text>
    </g>
  </g>
</svg>
